<svg width="517" height="228" viewBox="0 0 517 228" fill="none" xmlns="http://www.w3.org/2000/svg">
<path d="M149.823 197.074C148.334 194.434 146.854 192.282 145.955 189.91C145.497 188.701 145.584 187.632 143.883 187.666C141.396 187.716 142.167 189.572 142.178 190.787C142.236 197.681 140.662 204.359 138.28 210.643C135.433 218.155 130.391 224.271 121.893 225.828C113.995 227.274 107.339 224.319 102.808 217.858C98.3806 211.546 96.8663 203.987 96.5934 196.431C96.2078 185.754 96.1859 175.042 96.5857 164.367C96.96 154.372 98.8943 144.512 101.571 134.893C102.834 130.353 107.123 129.141 111.401 129.785C115.28 130.369 118.651 131.807 118.778 136.929C118.961 144.32 115.295 150.796 114.402 157.92C112.485 173.212 112.488 188.454 115.089 203.65C115.391 205.411 116.895 207.173 118.754 207.221C120.623 207.269 120.606 205.158 121.306 203.711C125.873 194.268 125.066 183.806 127.216 173.917C128.823 166.524 131.053 159.505 134.333 152.69C136.198 148.816 139.704 147.441 142.9 147.261C145.948 147.089 148.911 149.324 150.793 152.568C154.418 158.812 155.85 165.788 158.202 172.459C162.865 185.681 170.306 196.856 182.086 204.887C183.6 205.92 184.766 206.653 186.444 205.663C188.398 204.51 186.323 203.212 186.566 202.004C187.608 196.821 184.304 192.623 182.452 188.567C176.668 175.901 173.2 162.655 171.989 149.043C170.71 134.669 178.512 124.337 196.627 127.359C207.974 129.252 219.202 131.801 230.824 130.934C236.74 130.493 242.629 131.267 245.574 136.979C249.133 143.882 245.952 149.877 241.572 155.578C232.285 167.669 226.319 181.122 226.029 196.667C226.014 197.489 225.822 198.381 226.07 199.122C226.993 201.884 226.902 205.938 229.356 206.96C231.637 207.91 233.467 204.271 235.23 202.442C244.809 192.504 250.504 180.237 255.594 167.658C257.812 162.175 259.732 156.571 261.821 151.034C263.651 146.184 267.461 145.44 272.129 145.642C276.614 145.836 278.088 149.125 278.959 152.205C282.889 166.111 286.747 179.934 294.911 192.217C297.2 195.66 301.073 197.587 302.582 201.503C303.114 202.88 304.28 202.572 305.134 202.367C306.638 202.008 307.385 200.893 307.455 199.254C307.908 188.633 307.617 177.982 305.899 167.545C304.461 158.812 303.399 150.053 302.672 141.273C302.375 137.676 301.388 136.779 298.07 137.052C289.294 137.775 281.632 134.586 274.784 129.489C268.025 124.459 267.047 112.086 274.02 105.067C285.001 94.0152 300.985 97.3751 310.715 110.334C312.757 113.053 312.78 114.822 316.986 111.672C322.747 107.358 330.048 105.067 336.068 100.657C338.715 98.7186 343.053 96.6745 345.072 100.611C346.776 103.934 346.633 108.141 342.322 111.268C334.739 116.77 327.329 122.5 319.267 127.303C316.504 128.949 317.104 131.581 317.43 133.862C320.532 155.55 326.011 176.981 324.674 199.145C324.233 206.451 322.273 213.364 315.414 217.337C304.4 223.717 292.597 218.162 285.265 208.935C278.62 200.572 272.895 191.677 269.295 180.012C264.223 193.496 257.341 204.273 249.228 214.249C240.994 224.371 227.989 229.147 218.001 221.075C212.2 216.386 209.445 209.948 208.819 202.771C207.114 183.209 212.897 165.67 223.893 149.656C224.088 149.373 224.101 148.965 224.327 148.155C214.12 148.683 204.32 145.977 194.269 145.66C191.051 145.558 189.955 146.462 190.204 149.728C191.141 161.973 195.18 173.26 200.094 184.385C203.894 192.989 206.782 201.73 203.943 211.546C201.334 220.567 192.283 226.618 183.362 224.401C171.492 221.451 162.747 214.197 155.662 204.572C153.878 202.147 151.94 199.835 149.823 197.074Z" fill="#30287D"/>
<path d="M110.191 6.31787C134.67 -7.55001 164.144 2.46012 176.864 26.1205C185.385 41.9688 189.934 58.6478 190.053 76.3058C190.157 91.8268 185.65 106.702 174.889 118.172C158.252 135.904 126.042 136.921 113.13 114.677C111.704 112.22 110.199 112.493 108.293 112.426C99.2513 112.104 90.209 113.173 81.2722 110.059C61.986 103.337 46.1549 83.5279 47.098 62.7024C47.34 57.358 47.5434 52.1632 44.3679 46.9855C41.9869 43.1031 42.2613 37.6648 46.1057 34.1123C49.5664 30.9145 53.6258 27.7832 58.6846 31.882C59.097 32.2162 59.8914 32.3165 60.4439 32.2054C74.8923 29.3001 91.8006 31.7631 99.8035 14.6063C101.87 10.177 106.834 9.60173 110.191 6.31787Z" fill="#30287D"/>
<path d="M36.1718 108.72C46.6015 108.6 56.5083 108.018 65.2387 113.958C76.3404 121.512 83.6034 131.409 85.4537 145.089C87.7706 162.219 86.6452 179.41 86.3367 196.538C86.21 203.574 85.6284 210.712 85.367 217.814C85.1637 223.335 80.2014 228.015 75.8998 225.64C68.1663 221.369 61.5667 225.638 54.5711 226.646C38.5549 228.952 20.6179 224.747 8.69164 209.36C-10.8458 184.153 4.49755 148.643 35.3674 142.012C43.7726 140.206 52.1338 140.043 60.5588 141.916C62.0737 142.253 64.3569 142.339 65.2547 141.473C66.5032 140.268 64.9745 138.736 64.1468 137.278C57.3925 125.381 44.7985 125.143 33.2283 126.38C30.259 126.698 27.1842 126.672 24.2447 127.269C18.0939 128.518 15.9636 123.907 15.3934 119.86C14.7657 115.405 17.3656 110.972 22.4026 110.158C26.7292 109.458 31.0639 108.001 36.1718 108.72Z" fill="#30287D"/>
<path d="M355.866 180.579C367.402 168.953 378.967 157.962 389.356 145.839C390.1 144.971 391.643 144.405 391.13 142.936C390.584 141.37 389.044 142.047 387.96 142.061C373.868 142.254 359.863 140.115 345.738 140.632C342.118 140.765 338.911 142.532 334.672 141.143C326.943 138.61 329.997 132.979 329.829 128.539C329.668 124.288 334.018 124.968 336.57 124.876C345.185 124.565 353.818 124.757 362.444 124.757C379.491 124.757 396.541 124.945 413.582 124.641C418.602 124.551 420.958 127.135 422.784 130.924C424.618 134.732 422.34 137.427 419.903 139.957C408.638 151.654 397.33 163.31 386.099 175.039C377.626 183.886 369.246 192.821 360.55 202.007C380.364 203.556 399.671 204.049 419.003 203.7C423.079 203.627 426.916 203.468 427.164 209.287C427.49 216.947 426.343 218.801 419.909 219.757C407.18 221.648 394.525 220.918 381.719 219.988C367.418 218.948 352.982 219.651 338.607 219.811C334.779 219.853 332.144 219.105 330.46 215.197C328.732 211.188 329.802 208.098 332.408 205.304C340.056 197.102 347.832 189.018 355.866 180.579Z" fill="#30287D"/>
<path d="M419.73 176.2C420.239 162.279 422.157 149.409 431.8 139.014C439.771 130.421 448.668 124.737 461.177 124.524C474.601 124.295 486.31 127.411 496.896 135.684C512.035 147.515 518.943 164.114 514.878 184.67C510.685 205.876 497.64 216.609 476.827 219.873C458.68 222.718 443.543 216.307 431.441 204.121C425.559 198.199 420.443 189.884 420.88 180.13C420.929 179.025 420.146 177.883 419.73 176.2Z" fill="#30287D"/>
<path d="M294.749 117.622C295.958 119.192 298.45 120.163 297.221 121.719C296.25 122.949 293.881 122.812 292.319 121.347C291.879 120.933 291.485 120.373 290.958 120.167C288.914 119.365 286.098 119.845 285.402 116.931C285.299 116.498 286.274 115.449 286.92 115.258C289.772 114.413 292.492 114.47 294.749 117.622Z" fill="#A9A9A9"/>
<path d="M139.016 113.654C125.316 110.207 119.933 95.9288 125.846 83.5976C129.021 76.9753 132.097 70.3321 136.519 64.4241C138.885 61.2644 139.164 57.7688 136.099 55.4079C132.749 52.8269 130.02 55.8326 128.027 58.1959C120.359 67.2932 111.942 75.9121 109.711 88.4258C108.788 93.6004 103.486 96.7897 95.5968 96.2451C83.1486 95.3858 72.8664 90.049 66.1811 79.0025C61.3817 71.072 58.918 62.8234 61.8211 53.4573C63.874 46.8343 67.258 42.9842 73.9046 43.4815C88.9239 44.6053 99.0102 37.9572 108.219 26.4961C121.678 9.7442 147.803 9.87905 160.69 31.1783C167.511 42.4523 171.699 54.5206 171.661 67.7408C171.641 74.5925 172.348 81.4219 170.65 88.3451C166.553 105.055 156.389 113.654 139.016 113.654Z" fill="#A9A9A9"/>
<path d="M43.8686 158.065C51.859 158.118 59.3158 157.462 66.2558 161.392C68.5794 162.708 69.4246 163.976 69.4023 166.504C69.3063 177.392 69.3377 188.281 69.383 199.17C69.391 201.106 69.1184 202.576 67.1776 203.693C53.8032 211.389 39.8569 212.465 27.3654 203.385C18.5507 196.978 12.4228 183.292 22.0742 171.179C27.7604 164.043 34.452 159.568 43.8686 158.065Z" fill="#A9A9A9"/>
<path d="M439.462 182.461C434.036 171.742 438.252 162.823 443.007 153.824C447.447 145.423 455.281 141.403 463.65 141.205C471.773 141.014 479.788 144.646 486.414 150.114C495.38 157.516 500.604 166.689 498.571 178.596C497.086 187.295 492.826 194.037 484.796 199.044C471.034 207.626 459.4 202.887 447.987 194.971C443.882 192.123 441.696 187.411 439.462 182.461Z" fill="#A9A9A9"/>
<path d="M120.37 49.1613C117.926 44.6667 115.199 41.4704 110.092 40.7922C106.693 40.341 105.381 37.9095 106.979 34.766C109.248 30.3025 117.448 29.1417 122.777 32.3117C127.692 35.2358 130.891 44.3508 127.994 48.0911C126.237 50.359 123.626 51.4954 120.37 49.1613Z" fill="#30287D"/>
</svg>
