<svg width="19" height="19" viewBox="0 0 19 19" fill="none" xmlns="http://www.w3.org/2000/svg">
<path opacity="0.977" fill-rule="evenodd" clip-rule="evenodd" d="M2.2877 0.0114142C3.70056 -0.0943246 4.57656 0.534592 4.91568 1.89816C5.00718 3.22819 4.41573 4.07426 3.14123 4.43629C1.74812 4.5698 0.872129 3.96335 0.51326 2.61693C0.406308 1.26514 0.997791 0.396635 2.2877 0.0114142Z" fill="#FCF4DC"/>
<path opacity="0.987" fill-rule="evenodd" clip-rule="evenodd" d="M13.9679 5.80715C15.026 5.74884 16.0293 5.951 16.9777 6.41361C17.6948 6.87663 18.1965 7.51305 18.4826 8.32282C18.719 9.03763 18.8538 9.7714 18.8869 10.524C18.9094 13.1595 18.9169 15.7949 18.9094 18.4304C17.6216 18.4304 16.3338 18.4304 15.046 18.4304C15.0535 16.0495 15.046 13.6686 15.0236 11.2877C14.8855 9.60675 13.9946 8.94042 12.3507 9.28866C11.5904 9.55514 11.1336 10.0867 10.9805 10.8834C10.9396 11.0764 10.9096 11.271 10.8907 11.4674C10.8682 13.7884 10.8607 16.1093 10.8682 18.4304C9.58043 18.4304 8.29268 18.4304 7.00488 18.4304C7.00488 14.3275 7.00488 10.2245 7.00488 6.12161C8.23275 6.12161 9.46067 6.12161 10.6885 6.12161C10.681 6.67587 10.6885 7.2299 10.711 7.78375C11.263 6.85857 12.0641 6.25211 13.1144 5.96438C13.4036 5.90194 13.6881 5.84952 13.9679 5.80715Z" fill="#FCF4DC"/>
<path opacity="0.986" fill-rule="evenodd" clip-rule="evenodd" d="M0.760254 6.12158C2.04804 6.12158 3.3358 6.12158 4.6236 6.12158C4.6236 10.2245 4.6236 14.3275 4.6236 18.4304C3.3358 18.4304 2.04804 18.4304 0.760254 18.4304C0.760254 14.3275 0.760254 10.2245 0.760254 6.12158Z" fill="#FCF4DC"/>
</svg>
