<svg width="20" height="14" viewBox="0 0 20 14" fill="none" xmlns="http://www.w3.org/2000/svg">
<path opacity="0.994" fill-rule="evenodd" clip-rule="evenodd" d="M19.3231 2.04965V1.33048C19.1177 0.615911 18.6502 0.178414 17.9207 0.0179803C12.7187 -0.00599343 7.51666 -0.00599343 2.3146 0.0179803C1.58473 0.178605 1.11726 0.616105 0.912209 1.33048V2.04965C1.01603 2.44815 1.23178 2.77778 1.55947 3.03852L9.11082 8.07275C9.78206 8.48028 10.4533 8.48028 11.1245 8.07275L18.6759 3.03852C19.0036 2.77778 19.2193 2.44815 19.3231 2.04965ZM8.71517 9.04364C6.11841 7.30363 3.51738 5.57163 0.912109 3.84759V12.4777C1.11716 13.1921 1.58463 13.6296 2.3145 13.7902C7.51656 13.8142 12.7186 13.8142 17.9206 13.7902C18.6501 13.6298 19.1176 13.1923 19.323 12.4777V3.84759C16.7177 5.57163 14.1167 7.30363 11.52 9.04364C10.585 9.54706 9.6501 9.54706 8.71517 9.04364Z" fill="#FCF4DC"/>
</svg>
