<svg width="30" height="26" viewBox="0 0 30 26" fill="none" xmlns="http://www.w3.org/2000/svg">
<path opacity="0.985" fill-rule="evenodd" clip-rule="evenodd" d="M12.8807 1.27075C14.9388 1.44417 16.1853 2.54152 16.62 4.56281C16.911 6.47121 16.3189 8.03855 14.8438 9.26481C13.2024 10.2767 11.6659 10.137 10.2345 8.84572C9.04725 7.39226 8.76699 5.77485 9.39383 3.99341C10.0308 2.39943 11.1931 1.49188 12.8807 1.27075Z" fill="#30287D"/>
<path opacity="0.984" fill-rule="evenodd" clip-rule="evenodd" d="M20.6814 4.35325C22.7007 4.54963 23.7932 5.66001 23.959 7.68438C23.9645 9.28464 23.3275 10.5587 22.048 11.5066C20.5569 12.4315 19.1322 12.3407 17.774 11.2341C16.8335 10.145 16.5538 8.89936 16.9348 7.49701C17.5185 5.63762 18.7673 4.58971 20.6814 4.35325Z" fill="#30287D"/>
<path opacity="0.983" fill-rule="evenodd" clip-rule="evenodd" d="M2.32664 8.81995C2.38043 8.42174 2.43422 8.02353 2.48802 7.62532C3.28433 5.57262 4.72798 4.8973 6.81897 5.5994C8.12514 6.33577 8.82797 7.45267 8.9275 8.95021C8.98205 10.3898 8.41725 11.5047 7.23316 12.2948C5.71914 12.9174 4.4066 12.6221 3.29555 11.4088C2.69801 10.6457 2.37504 9.78272 2.32664 8.81995Z" fill="#30287D"/>
<path opacity="0.984" fill-rule="evenodd" clip-rule="evenodd" d="M27.5337 14.4503C27.4799 14.8485 27.4261 15.2467 27.3724 15.6449C26.7992 17.2056 25.6917 18.1459 24.0498 18.4658C22.3102 18.5999 21.1695 17.8462 20.6276 16.2048C20.4018 13.9621 21.3425 12.4418 23.4498 11.6439C24.7535 11.3193 25.8789 11.6231 26.8261 12.5556C27.2622 13.1161 27.4981 13.7477 27.5337 14.4503Z" fill="#30287D"/>
<path opacity="0.992" fill-rule="evenodd" clip-rule="evenodd" d="M14.0059 10.597C16.1943 10.9402 17.8248 12.0725 18.8976 13.9938C19.671 15.6525 20.4443 17.3111 21.2177 18.9697C21.8267 20.5975 21.5609 22.0652 20.4201 23.3729C19.0841 24.6071 17.5675 24.884 15.8702 24.2036C14.3474 23.2269 12.683 22.7827 10.8771 22.8711C10.0592 22.9939 9.24527 23.1375 8.43529 23.3019C6.09753 23.2561 4.69067 22.0949 4.21464 19.8182C4.10175 18.653 4.41123 17.6135 5.14305 16.6997C6.35893 15.3012 7.56352 13.8925 8.75687 12.4737C10.224 11.0663 11.9737 10.4407 14.0059 10.597Z" fill="#30287D"/>
</svg>
