<svg width="29" height="26" viewBox="0 0 29 26" fill="none" xmlns="http://www.w3.org/2000/svg">
<path opacity="0.985" fill-rule="evenodd" clip-rule="evenodd" d="M12.6686 1.27106C14.7255 1.44447 15.9711 2.54182 16.4056 4.56311C16.6964 6.47152 16.1047 8.03885 14.6305 9.26511C12.9902 10.277 11.4547 10.1373 10.0242 8.84602C8.83771 7.39256 8.55763 5.77516 9.18407 3.99371C9.82063 2.39973 10.9821 1.49218 12.6686 1.27106Z" fill="#950F01"/>
<path opacity="0.984" fill-rule="evenodd" clip-rule="evenodd" d="M20.4641 4.35276C22.4821 4.54915 23.574 5.65952 23.7397 7.68389C23.7451 9.28415 23.1085 10.5582 21.8299 11.5061C20.3398 12.431 18.916 12.3402 17.5586 11.2336C16.6188 10.1445 16.3392 8.89888 16.72 7.49652C17.3033 5.63713 18.5514 4.58922 20.4641 4.35276Z" fill="#950F01"/>
<path opacity="0.983" fill-rule="evenodd" clip-rule="evenodd" d="M2.12166 8.82001C2.17541 8.4218 2.22917 8.02359 2.28293 7.62538C3.07873 5.57268 4.52145 4.89736 6.61108 5.59947C7.91642 6.33583 8.6188 7.45273 8.71825 8.95027C8.77277 10.3899 8.20834 11.5048 7.02501 12.2949C5.51196 12.9175 4.20027 12.6222 3.08994 11.4089C2.49278 10.6458 2.17002 9.78278 2.12166 8.82001Z" fill="#950F01"/>
<path opacity="0.984" fill-rule="evenodd" clip-rule="evenodd" d="M27.3126 14.4502C27.2588 14.8485 27.2051 15.2467 27.1513 15.6449C26.5785 17.2055 25.4717 18.1458 23.8309 18.4657C22.0924 18.5998 20.9524 17.8462 20.4109 16.2048C20.1852 13.962 21.1254 12.4417 23.2313 11.6439C24.5341 11.3192 25.6588 11.6231 26.6054 12.5555C27.0412 13.1161 27.277 13.7476 27.3126 14.4502Z" fill="#950F01"/>
<path opacity="0.992" fill-rule="evenodd" clip-rule="evenodd" d="M13.7929 10.5967C15.9798 10.9399 17.6094 12.0722 18.6814 13.9935C19.4543 15.6522 20.2272 17.3108 21.0001 18.9694C21.6087 20.5972 21.343 22.0649 20.2029 23.3726C18.8679 24.6068 17.3522 24.8837 15.656 24.2033C14.1341 23.2266 12.4709 22.7824 10.6662 22.8708C9.84873 22.9936 9.03533 23.1372 8.22587 23.3016C5.88962 23.2558 4.48366 22.0946 4.00794 19.8179C3.89513 18.6527 4.20441 17.6132 4.93575 16.6994C6.15085 15.3009 7.35467 13.8922 8.54725 12.4734C10.0134 11.066 11.762 10.4404 13.7929 10.5967Z" fill="#950F01"/>
</svg>
