<svg width="30" height="26" viewBox="0 0 30 26" fill="none" xmlns="http://www.w3.org/2000/svg">
<path opacity="0.985" fill-rule="evenodd" clip-rule="evenodd" d="M13.1316 1.27075C15.1898 1.44417 16.4363 2.54152 16.871 4.56281C17.162 6.47121 16.5699 8.03855 15.0947 9.26481C13.4534 10.2767 11.9169 10.137 10.4855 8.84572C9.29823 7.39226 9.01797 5.77485 9.64481 3.99341C10.2818 2.39943 11.4441 1.49188 13.1316 1.27075Z" fill="#950F01"/>
<path opacity="0.984" fill-rule="evenodd" clip-rule="evenodd" d="M20.9331 4.35325C22.9524 4.54963 24.0449 5.66001 24.2107 7.68438C24.2162 9.28464 23.5792 10.5587 22.2997 11.5066C20.8086 12.4315 19.3839 12.3407 18.0257 11.2341C17.0852 10.145 16.8055 8.89936 17.1865 7.49701C17.7702 5.63762 19.019 4.58971 20.9331 4.35325Z" fill="#950F01"/>
<path opacity="0.983" fill-rule="evenodd" clip-rule="evenodd" d="M2.57835 8.81977C2.63214 8.42156 2.68593 8.02335 2.73972 7.62514C3.53604 5.57244 4.97969 4.89712 7.07067 5.59922C8.37685 6.33559 9.07968 7.45249 9.1792 8.95002C9.23375 10.3896 8.66896 11.5045 7.48487 12.2946C5.97084 12.9173 4.65831 12.622 3.54726 11.4086C2.94972 10.6455 2.62675 9.78254 2.57835 8.81977Z" fill="#950F01"/>
<path opacity="0.984" fill-rule="evenodd" clip-rule="evenodd" d="M27.7854 14.4503C27.7316 14.8485 27.6779 15.2467 27.6241 15.6449C27.0509 17.2056 25.9434 18.1459 24.3015 18.4658C22.5619 18.5999 21.4212 17.8462 20.8793 16.2048C20.6535 13.9621 21.5942 12.4418 23.7015 11.6439C25.0052 11.3193 26.1306 11.6231 27.0778 12.5556C27.5139 13.1161 27.7498 13.7477 27.7854 14.4503Z" fill="#950F01"/>
<path opacity="0.992" fill-rule="evenodd" clip-rule="evenodd" d="M14.2574 10.597C16.4457 10.9402 18.0763 12.0725 19.1491 13.9938C19.9225 15.6525 20.6958 17.3111 21.4692 18.9697C22.0782 20.5975 21.8123 22.0652 20.6715 23.3729C19.3356 24.6071 17.819 24.884 16.1217 24.2036C14.5988 23.2269 12.9345 22.7827 11.1286 22.8711C10.3107 22.9939 9.49674 23.1375 8.68676 23.3019C6.349 23.2561 4.94213 22.0949 4.4661 19.8182C4.35322 18.653 4.6627 17.6135 5.39451 16.6997C6.61039 15.3012 7.81499 13.8925 9.00834 12.4737C10.4755 11.0663 12.2251 10.4407 14.2574 10.597Z" fill="#950F01"/>
</svg>
