<svg width="48" height="45" viewBox="0 0 48 45" fill="none" xmlns="http://www.w3.org/2000/svg">
<path opacity="0.985" fill-rule="evenodd" clip-rule="evenodd" d="M14.3041 6.62492C17.3457 5.64495 19.7804 6.46804 21.6081 9.09419C23.1631 11.6449 23.2539 14.2355 21.8804 16.8658C20.1416 19.2892 17.8649 20.0061 15.0503 19.0166C12.4875 17.6498 11.1215 15.5081 10.9525 12.5912C10.9099 9.93582 12.0271 7.94707 14.3041 6.62492Z" fill="#950F01"/>
<path opacity="0.984" fill-rule="evenodd" clip-rule="evenodd" d="M27.2784 6.37183C30.2783 5.44783 32.5011 6.38131 33.9467 9.17226C34.9101 11.4534 34.7616 13.6521 33.5012 15.7683C31.925 17.978 29.8369 18.698 27.2372 17.9284C25.2443 16.9347 24.1011 15.3233 23.8075 13.0941C23.5303 10.0917 24.6873 7.85093 27.2784 6.37183Z" fill="#950F01"/>
<path opacity="0.983" fill-rule="evenodd" clip-rule="evenodd" d="M3.74587 23.6954C3.58486 23.0949 3.42384 22.4944 3.26282 21.8938C3.17374 18.4886 4.83129 16.6636 8.23551 16.4187C10.5399 16.6909 12.2102 17.8661 13.2465 19.9445C14.1841 21.9671 14.0436 23.8954 12.8252 25.7296C11.0357 27.5214 8.98566 27.8826 6.67504 26.8132C5.36631 26.0802 4.38991 25.041 3.74587 23.6954Z" fill="#950F01"/>
<path opacity="0.984" fill-rule="evenodd" clip-rule="evenodd" d="M43.0943 16.6987C43.2553 17.2993 43.4163 17.8998 43.5773 18.5004C43.6911 21.0701 42.6716 23.0729 40.5188 24.5088C38.1156 25.7377 36.0371 25.3423 34.2833 23.3223C32.6217 20.2554 33.0568 17.5241 35.5885 15.1283C37.2556 13.8873 39.0437 13.6499 40.9526 14.416C41.9099 14.9561 42.6238 15.717 43.0943 16.6987Z" fill="#950F01"/>
<path opacity="0.992" fill-rule="evenodd" clip-rule="evenodd" d="M21.4803 19.2654C24.8092 18.4502 27.8131 19.0941 30.4919 21.197C32.5864 23.1035 34.6809 25.0099 36.7754 26.9164C38.6169 28.8768 39.1138 31.1306 38.2663 33.6778C37.0962 36.2364 35.0966 37.5362 32.2673 37.5772C29.5102 37.0913 26.869 37.4498 24.3438 38.653C23.2495 39.3161 22.1734 40.0066 21.1153 40.7244C17.7508 42.0533 15.049 41.2347 13.0098 38.2686C12.1528 36.6725 11.9738 35.004 12.4728 33.2632C13.3734 30.5415 14.2517 27.8122 15.108 25.0751C16.3619 22.1909 18.486 20.2544 21.4803 19.2654Z" fill="#950F01"/>
</svg>
