<svg width="82" height="82" viewBox="0 0 82 82" fill="none" xmlns="http://www.w3.org/2000/svg">
<path opacity="0.878" fill-rule="evenodd" clip-rule="evenodd" d="M49.8086 0.0396325C51.4105 -0.183333 52.0778 0.534477 51.8105 2.19308C51.5195 3.26226 50.8521 3.62117 49.8086 3.2698C49.0746 2.71489 48.8343 1.96947 49.0879 1.03353C49.2166 0.595237 49.4569 0.263935 49.8086 0.0396325Z" fill="#408CFF"/>
<path opacity="0.881" fill-rule="evenodd" clip-rule="evenodd" d="M45.8031 4.34706C47.4865 4.09191 48.2072 4.80972 47.9652 6.5005C47.1043 7.4287 46.1434 7.53914 45.0824 6.8318C44.5897 5.73734 44.8299 4.90909 45.8031 4.34706Z" fill="#408CFF"/>
<path opacity="0.878" fill-rule="evenodd" clip-rule="evenodd" d="M53.8128 4.34612C55.8337 4.14345 56.4743 4.99929 55.7347 6.91369C54.8311 7.48809 53.9502 7.4605 53.0921 6.83086C52.5995 5.7364 52.8397 4.90815 53.8128 4.34612Z" fill="#408CFF"/>
<path opacity="0.875" fill-rule="evenodd" clip-rule="evenodd" d="M49.8086 8.32235C51.4105 8.09938 52.0778 8.81719 51.8105 10.4758C51.5293 11.5465 50.8619 11.9054 49.8086 11.5525C49.0746 10.9976 48.8343 10.2522 49.0879 9.31624C49.2166 8.87795 49.4569 8.54665 49.8086 8.32235Z" fill="#408CFF"/>
<path opacity="0.875" fill-rule="evenodd" clip-rule="evenodd" d="M15.695 9.31524C16.9085 9.21759 17.5492 9.79737 17.6169 11.0546C17.4777 12.5547 16.7303 13.0517 15.3747 12.5454C14.7938 11.9172 14.6069 11.1718 14.8142 10.3091C15.032 9.89127 15.3256 9.55998 15.695 9.31524Z" fill="#408CFF"/>
<path opacity="0.89" fill-rule="evenodd" clip-rule="evenodd" d="M11.2108 13.7867C11.8537 13.7593 12.4943 13.7869 13.1327 13.8696C13.926 14.6386 13.9794 15.4669 13.2928 16.3543C12.3146 16.7866 11.4337 16.6485 10.6503 15.9402C10.4163 15.0832 10.6032 14.3654 11.2108 13.7867Z" fill="#408CFF"/>
<path opacity="0.893" fill-rule="evenodd" clip-rule="evenodd" d="M19.215 13.7867C19.8578 13.7593 20.4984 13.7869 21.1368 13.8696C21.9301 14.6386 21.9836 15.4669 21.297 16.3543C20.4139 16.7461 19.5864 16.6632 18.8146 16.1058C18.401 15.2146 18.5344 14.4416 19.215 13.7867Z" fill="#408CFF"/>
<path opacity="0.884" fill-rule="evenodd" clip-rule="evenodd" d="M66.146 14.4511C67.3957 14.2526 68.0896 14.8047 68.228 16.1076C68.1673 17.52 67.4733 18.0446 66.146 17.6813C65.9168 17.6043 65.73 17.4661 65.5854 17.2672C65.1365 16.1625 65.3232 15.2237 66.146 14.4511Z" fill="#408CFF"/>
<path opacity="0.94" fill-rule="evenodd" clip-rule="evenodd" d="M41.3199 17.4328C46.8381 17.2874 49.9346 20.0483 50.609 25.7153C50.2437 30.372 47.8413 33.1053 43.4019 33.915C33.3121 34.0254 23.2222 34.0254 13.1324 33.915C12.2363 33.525 11.9427 32.8348 12.2515 31.8443C12.4384 31.651 12.6252 31.4579 12.8121 31.2646C22.7418 31.2094 32.6715 31.1541 42.6012 31.0989C46.3014 30.5846 47.983 28.4036 47.6461 24.5558C46.3424 20.8033 43.86 19.5609 40.1988 20.8286C38.2667 22.0569 37.279 23.8514 37.2359 26.2122C36.7719 26.9833 36.1047 27.2318 35.234 26.9577C35.0471 26.7644 34.8603 26.5712 34.6734 26.3779C34.4116 22.8055 35.7729 20.1276 38.7574 18.3439C39.5966 17.9354 40.4507 17.6316 41.3199 17.4328Z" fill="white"/>
<path opacity="0.875" fill-rule="evenodd" clip-rule="evenodd" d="M15.695 17.5981C16.9085 17.5004 17.5492 18.0801 17.6169 19.3374C17.4777 20.8375 16.7303 21.3345 15.3747 20.8283C14.7938 20.2001 14.6069 19.4547 14.8142 18.592C15.032 18.1741 15.3256 17.8428 15.695 17.5981Z" fill="#408CFF"/>
<path opacity="0.878" fill-rule="evenodd" clip-rule="evenodd" d="M62.2988 18.7589C64.1349 18.7481 64.722 19.6039 64.0605 21.3265C62.6207 22.1456 61.6065 21.7866 61.0176 20.2497C61.1204 19.427 61.5474 18.93 62.2988 18.7589Z" fill="#408CFF"/>
<path opacity="0.881" fill-rule="evenodd" clip-rule="evenodd" d="M70.3109 18.7589C72.1452 18.7465 72.7323 19.6024 72.0726 21.3265C71.1721 21.8967 70.2912 21.869 69.4301 21.2437C68.8934 20.0508 69.1871 19.2226 70.3109 18.7589Z" fill="#408CFF"/>
<path opacity="0.884" fill-rule="evenodd" clip-rule="evenodd" d="M66.146 22.7319C67.3957 22.5333 68.0896 23.0856 68.228 24.3884C68.1673 25.8007 67.4733 26.3253 66.146 25.9621C65.9168 25.885 65.73 25.7469 65.5854 25.5479C65.1365 24.4432 65.3232 23.5045 66.146 22.7319Z" fill="#408CFF"/>
<path opacity="0.945" fill-rule="evenodd" clip-rule="evenodd" d="M82 36.1497C82 37.2541 82 38.3583 82 39.4627C81.0703 43.1567 78.7748 45.3376 75.1133 46.0059C50.3424 46.1164 25.5717 46.1164 0.800781 46.0059C0.508807 45.8407 0.241879 45.6474 0 45.4261C0 44.9292 0 44.4322 0 43.9353C0.234084 43.7766 0.447626 43.5834 0.640625 43.3555C25.3047 43.3003 49.9688 43.245 74.6328 43.1898C78.5049 42.1655 79.9197 39.653 78.877 35.6528C77.3961 32.8854 75.1807 31.9192 72.2305 32.7539C69.9721 33.8888 68.7975 35.7661 68.707 38.386C68.1359 39.3365 67.3886 39.5021 66.4648 38.8829C65.8213 34.7495 67.3696 31.823 71.1094 30.1035C74.9363 28.8282 78.1128 29.7944 80.6387 33.0024C81.2663 33.9885 81.72 35.0376 82 36.1497Z" fill="white"/>
<path opacity="0.887" fill-rule="evenodd" clip-rule="evenodd" d="M72.709 54.5375C74.3908 54.4746 75.0047 55.3028 74.5508 57.0223C73.776 58.2638 72.9217 58.319 71.9883 57.1879C71.8815 56.5805 71.8815 55.9732 71.9883 55.3658C72.1525 55.0035 72.3927 54.7273 72.709 54.5375Z" fill="#408CFF"/>
<path opacity="0.94" fill-rule="evenodd" clip-rule="evenodd" d="M12.9711 55.3668C23.2212 55.3392 33.4712 55.3668 43.7211 55.4496C47.9793 56.4038 50.2748 59.137 50.6078 63.6493C49.9697 69.2512 46.9268 71.9844 41.4789 71.8489C37.7474 71.1918 35.4785 68.9555 34.6722 65.1401C34.5654 64.4224 34.5654 63.7045 34.6722 62.9867C35.584 61.8682 36.4381 61.9236 37.2347 63.1523C37.3968 66.7155 39.1851 68.7033 42.6 69.1157C46.5677 68.362 48.196 65.9324 47.4847 61.8272C46.6696 59.7685 45.2014 58.5813 43.0805 58.2657C33.0439 58.2105 23.0076 58.1552 12.9711 58.1C12.1528 57.5425 11.966 56.797 12.4105 55.8638C12.5939 55.6756 12.7808 55.5099 12.9711 55.3668Z" fill="white"/>
<path opacity="0.881" fill-rule="evenodd" clip-rule="evenodd" d="M68.2285 59.0122C68.9968 58.9495 69.7442 59.0323 70.4707 59.2607C71.2129 60.2815 71.0527 61.1097 69.9902 61.7455C69.0418 62.0196 68.2677 61.7711 67.668 61C67.467 60.2112 67.6539 59.5486 68.2285 59.0122Z" fill="#408CFF"/>
<path opacity="0.884" fill-rule="evenodd" clip-rule="evenodd" d="M76.3912 59.0122C76.9809 58.9848 77.568 59.0123 78.1529 59.095C79.131 59.85 79.1843 60.6783 78.3131 61.5797C77.4617 61.9634 76.6609 61.8806 75.9107 61.3313C75.3862 60.3857 75.5464 59.6126 76.3912 59.0122Z" fill="#408CFF"/>
<path opacity="0.884" fill-rule="evenodd" clip-rule="evenodd" d="M72.709 62.8204C74.3908 62.7574 75.0047 63.5857 74.5508 65.3051C73.7683 66.5504 72.9142 66.6056 71.9883 65.4707C71.8815 64.8633 71.8815 64.256 71.9883 63.6486C72.1525 63.2863 72.3927 63.0102 72.709 62.8204Z" fill="#408CFF"/>
<path opacity="0.869" fill-rule="evenodd" clip-rule="evenodd" d="M19.5384 66.9624C21.2853 67.0924 21.8458 68.031 21.2201 69.7784C20.4193 70.6619 19.6185 70.6619 18.8177 69.7784C18.3885 68.626 18.6287 67.6873 19.5384 66.9624Z" fill="#408CFF"/>
<path opacity="0.884" fill-rule="evenodd" clip-rule="evenodd" d="M61.1776 70.2764C61.9431 70.1341 62.5037 70.4102 62.8592 71.1047C63.0187 71.888 62.9387 72.6334 62.619 73.3409C60.7457 74.0565 59.9716 73.3663 60.2967 71.2703C60.4603 70.7982 60.7538 70.4669 61.1776 70.2764Z" fill="#408CFF"/>
<path opacity="0.896" fill-rule="evenodd" clip-rule="evenodd" d="M15.2123 71.4337C17.0065 71.0549 17.7805 71.7728 17.5345 73.5872C16.8793 74.2175 16.1053 74.4108 15.2123 74.1669C14.4557 73.7636 14.2155 73.1285 14.4916 72.262C14.6557 71.8997 14.896 71.6236 15.2123 71.4337Z" fill="#408CFF"/>
<path opacity="0.899" fill-rule="evenodd" clip-rule="evenodd" d="M23.2233 71.4351C25.0175 71.0562 25.7916 71.7741 25.5456 73.5885C24.8904 74.2188 24.1163 74.4121 23.2233 74.1683C22.4915 73.7474 22.2513 73.1123 22.5026 72.2633C22.6668 71.901 22.907 71.6249 23.2233 71.4351Z" fill="#408CFF"/>
<path opacity="0.869" fill-rule="evenodd" clip-rule="evenodd" d="M56.6915 74.7461C57.2812 74.7187 57.8683 74.7462 58.4532 74.8289C59.0032 75.0822 59.27 75.5239 59.254 76.1541C59.2687 76.6202 59.1086 77.0067 58.7735 77.3136C58.0991 77.5677 57.4051 77.6229 56.6915 77.4793C55.6367 76.5611 55.6367 75.65 56.6915 74.7461Z" fill="#408CFF"/>
<path opacity="0.872" fill-rule="evenodd" clip-rule="evenodd" d="M64.7011 74.7474C65.2908 74.7201 65.8779 74.7476 66.4628 74.8302C67.0128 75.0835 67.2796 75.5253 67.2636 76.1554C67.2783 76.6216 67.1182 77.008 66.7831 77.315C66.1087 77.5691 65.4148 77.6242 64.7011 77.4806C63.6439 76.5702 63.6439 75.6591 64.7011 74.7474Z" fill="#408CFF"/>
<path opacity="0.866" fill-rule="evenodd" clip-rule="evenodd" d="M19.5349 75.2438C21.2817 75.3738 21.8423 76.3124 21.2166 78.0598C20.6546 78.7411 19.9872 78.8791 19.2146 78.4739C18.5375 77.7222 18.4039 76.8663 18.8142 75.9064C19.038 75.6463 19.2782 75.4253 19.5349 75.2438Z" fill="#408CFF"/>
<path opacity="0.884" fill-rule="evenodd" clip-rule="evenodd" d="M61.1767 78.558C61.9217 78.4725 62.4823 78.7487 62.8583 79.3862C62.9652 79.9937 62.9652 80.601 62.8583 81.2084C62.298 82.0588 61.5772 82.2245 60.6962 81.7053C60.2436 81.0606 60.1102 80.3429 60.2958 79.5519C60.4594 79.0798 60.7529 78.7485 61.1767 78.558Z" fill="#408CFF"/>
</svg>
