<svg width="83" height="82" viewBox="0 0 83 82" fill="none" xmlns="http://www.w3.org/2000/svg">
<path opacity="0.878" fill-rule="evenodd" clip-rule="evenodd" d="M49.9277 0.0396325C51.5334 -0.183333 52.2024 0.534477 51.9345 2.19308C51.6428 3.26226 50.9738 3.62117 49.9277 3.2698C49.192 2.71489 48.9512 1.96947 49.2053 1.03353C49.3344 0.595237 49.5752 0.263935 49.9277 0.0396325Z" fill="#212156"/>
<path opacity="0.881" fill-rule="evenodd" clip-rule="evenodd" d="M45.9135 4.34706C47.601 4.09191 48.3234 4.80972 48.0808 6.5005C47.2179 7.4287 46.2547 7.53914 45.1911 6.8318C44.6973 5.73734 44.9381 4.90909 45.9135 4.34706Z" fill="#212156"/>
<path opacity="0.878" fill-rule="evenodd" clip-rule="evenodd" d="M53.9411 4.34649C55.9668 4.14381 56.609 4.99966 55.8676 6.91405C54.9618 7.48846 54.0789 7.46086 53.2187 6.83123C52.7249 5.73677 52.9657 4.90852 53.9411 4.34649Z" fill="#212156"/>
<path opacity="0.875" fill-rule="evenodd" clip-rule="evenodd" d="M49.9277 8.32284C51.5334 8.09987 52.2024 8.81768 51.9345 10.4763C51.6526 11.547 50.9836 11.9059 49.9277 11.553C49.192 10.9981 48.9512 10.2527 49.2053 9.31673C49.3344 8.87844 49.5752 8.54714 49.9277 8.32284Z" fill="#212156"/>
<path opacity="0.875" fill-rule="evenodd" clip-rule="evenodd" d="M15.7325 9.31524C16.9489 9.21759 17.5911 9.79737 17.659 11.0546C17.5195 12.5547 16.7702 13.0517 15.4114 12.5454C14.8291 11.9172 14.6418 11.1718 14.8495 10.3091C15.0678 9.89127 15.3621 9.55998 15.7325 9.31524Z" fill="#212156"/>
<path opacity="0.89" fill-rule="evenodd" clip-rule="evenodd" d="M11.2366 13.7866C11.8809 13.7592 12.5231 13.7868 13.163 13.8694C13.9582 14.6385 14.0118 15.4668 13.3236 16.3542C12.343 16.7865 11.46 16.6484 10.6747 15.9401C10.4402 15.0831 10.6275 14.3653 11.2366 13.7866Z" fill="#212156"/>
<path opacity="0.893" fill-rule="evenodd" clip-rule="evenodd" d="M19.2604 13.7866C19.9048 13.7592 20.547 13.7868 21.1869 13.8694C21.982 14.6385 22.0357 15.4668 21.3474 16.3542C20.4622 16.7459 19.6327 16.6631 18.8591 16.1057C18.4446 15.2145 18.5783 14.4414 19.2604 13.7866Z" fill="#212156"/>
<path opacity="0.884" fill-rule="evenodd" clip-rule="evenodd" d="M66.3031 14.4515C67.5558 14.2529 68.2515 14.8051 68.3902 16.108C68.3293 17.5203 67.6337 18.0449 66.3031 17.6817C66.0734 17.6046 65.8862 17.4665 65.7413 17.2675C65.2913 16.1628 65.4785 15.2241 66.3031 14.4515Z" fill="#212156"/>
<path opacity="0.94" fill-rule="evenodd" clip-rule="evenodd" d="M41.4195 17.4332C46.9509 17.2878 50.0548 20.0486 50.7308 25.7157C50.3646 30.3724 47.9565 33.1056 43.5065 33.9153C33.3925 34.0258 23.2786 34.0258 13.1646 33.9153C12.2664 33.5254 11.9721 32.8351 12.2816 31.8447C12.4689 31.6514 12.6562 31.4582 12.8435 31.2649C22.7969 31.2098 32.7504 31.1544 42.7038 31.0993C46.4129 30.5849 48.0986 28.404 47.7608 24.5561C46.454 20.8037 43.9657 19.5613 40.2957 20.829C38.359 22.0573 37.3689 23.8518 37.3258 26.2126C36.8607 26.9837 36.1919 27.2322 35.319 26.958C35.1317 26.7647 34.9445 26.5716 34.7571 26.3783C34.4946 22.8059 35.8592 20.128 38.8509 18.3443C39.6921 17.9358 40.5483 17.632 41.4195 17.4332Z" fill="black"/>
<path opacity="0.875" fill-rule="evenodd" clip-rule="evenodd" d="M15.7325 17.5985C16.9489 17.5007 17.5911 18.0805 17.659 19.3378C17.5195 20.8379 16.7702 21.3349 15.4114 20.8286C14.8291 20.2005 14.6418 19.4551 14.8495 18.5924C15.0678 18.1744 15.3621 17.8431 15.7325 17.5985Z" fill="#212156"/>
<path opacity="0.878" fill-rule="evenodd" clip-rule="evenodd" d="M62.4484 18.7589C64.2888 18.7481 64.8773 19.6039 64.2143 21.3265C62.7711 22.1456 61.7544 21.7866 61.1641 20.2497C61.2671 19.427 61.6951 18.93 62.4484 18.7589Z" fill="#212156"/>
<path opacity="0.881" fill-rule="evenodd" clip-rule="evenodd" d="M70.4787 18.7589C72.3174 18.7465 72.9059 19.6024 72.2446 21.3265C71.3419 21.8967 70.459 21.869 69.5957 21.2437C69.0578 20.0508 69.3522 19.2226 70.4787 18.7589Z" fill="#212156"/>
<path opacity="0.884" fill-rule="evenodd" clip-rule="evenodd" d="M66.3031 22.7318C67.5558 22.5332 68.2515 23.0854 68.3902 24.3883C68.3293 25.8006 67.6337 26.3252 66.3031 25.9619C66.0734 25.8849 65.8862 25.7468 65.7413 25.5478C65.2913 24.4431 65.4785 23.5044 66.3031 22.7318Z" fill="#212156"/>
<path opacity="0.945" fill-rule="evenodd" clip-rule="evenodd" d="M82.1962 36.15C82.1962 37.2544 82.1962 38.3586 82.1962 39.463C81.2642 43.1569 78.9632 45.3379 75.293 46.0061C50.4628 46.1166 25.6328 46.1166 0.802697 46.0061C0.510024 45.841 0.242458 45.6477 0 45.4263C0 44.9294 0 44.4324 0 43.9355C0.234644 43.7768 0.448696 43.5837 0.642158 43.3557C25.3652 43.3006 50.0883 43.2452 74.8114 43.1901C78.6927 42.1657 80.1109 39.6533 79.0657 35.653C77.5813 32.8857 75.3606 31.9195 72.4033 32.7542C70.1395 33.889 68.9621 35.7663 68.8714 38.3862C68.2989 39.3367 67.5498 39.5024 66.6239 38.8832C65.9788 34.7497 67.5307 31.8232 71.2795 30.1038C75.1156 28.8284 78.2997 29.7947 80.8316 33.0026C81.4607 33.9887 81.9156 35.0378 82.1962 36.15Z" fill="black"/>
<path opacity="0.887" fill-rule="evenodd" clip-rule="evenodd" d="M72.8821 54.5375C74.5679 54.4746 75.1833 55.3028 74.7283 57.0223C73.9516 58.2638 73.0953 58.319 72.1597 57.1879C72.0526 56.5805 72.0526 55.9732 72.1597 55.3658C72.3242 55.0035 72.565 54.7273 72.8821 54.5375Z" fill="#212156"/>
<path opacity="0.94" fill-rule="evenodd" clip-rule="evenodd" d="M13.001 55.3668C23.2757 55.3392 33.5503 55.3668 43.8246 55.4496C48.093 56.4038 50.394 59.137 50.7278 63.6493C50.0882 69.2512 47.038 71.9844 41.5771 71.8489C37.8367 71.1918 35.5623 68.9555 34.7541 65.1401C34.6471 64.4224 34.6471 63.7045 34.7541 62.9867C35.6681 61.8682 36.5242 61.9236 37.3228 63.1523C37.4852 66.7155 39.2778 68.7033 42.7008 69.1157C46.678 68.362 48.3102 65.9324 47.5973 61.8272C46.7801 59.7685 45.3085 58.5813 43.1825 58.2657C33.1219 58.2105 23.0616 58.1552 13.001 58.1C12.1809 57.5425 11.9936 56.797 12.4392 55.8638C12.623 55.6756 12.8103 55.5099 13.001 55.3668Z" fill="black"/>
<path opacity="0.881" fill-rule="evenodd" clip-rule="evenodd" d="M68.3904 59.0125C69.1605 58.9497 69.9098 59.0325 70.638 59.261C71.3819 60.2817 71.2214 61.1099 70.1564 61.7457C69.2057 62.0199 68.4298 61.7714 67.8285 61.0003C67.6271 60.2115 67.8144 59.5489 68.3904 59.0125Z" fill="#212156"/>
<path opacity="0.884" fill-rule="evenodd" clip-rule="evenodd" d="M76.574 59.0122C77.1651 58.9848 77.7536 59.0123 78.3399 59.095C79.3203 59.85 79.3738 60.6783 78.5005 61.5797C77.647 61.9634 76.8443 61.8806 76.0924 61.3313C75.5666 60.3857 75.7271 59.6126 76.574 59.0122Z" fill="#212156"/>
<path opacity="0.884" fill-rule="evenodd" clip-rule="evenodd" d="M72.8821 62.8207C74.5679 62.7578 75.1833 63.586 74.7283 65.3055C73.9439 66.5508 73.0877 66.606 72.1597 65.4711C72.0526 64.8637 72.0526 64.2564 72.1597 63.649C72.3242 63.2867 72.565 63.0106 72.8821 62.8207Z" fill="#212156"/>
<path opacity="0.869" fill-rule="evenodd" clip-rule="evenodd" d="M19.5848 66.9629C21.3358 67.0929 21.8977 68.0315 21.2705 69.7789C20.4678 70.6623 19.6651 70.6623 18.8624 69.7789C18.4322 68.6265 18.673 67.6878 19.5848 66.9629Z" fill="#212156"/>
<path opacity="0.884" fill-rule="evenodd" clip-rule="evenodd" d="M61.3234 70.2765C62.0908 70.1342 62.6527 70.4104 63.0091 71.1048C63.169 71.8881 63.0887 72.6336 62.7683 73.341C60.8905 74.0566 60.1146 73.3664 60.4405 71.2704C60.6044 70.7983 60.8986 70.467 61.3234 70.2765Z" fill="#212156"/>
<path opacity="0.896" fill-rule="evenodd" clip-rule="evenodd" d="M15.2497 71.4341C17.0482 71.0552 17.8241 71.7732 17.5775 73.5875C16.9207 74.2178 16.1448 74.4111 15.2497 74.1673C14.4913 73.7639 14.2505 73.1288 14.5272 72.2623C14.6918 71.9001 14.9326 71.6239 15.2497 71.4341Z" fill="#212156"/>
<path opacity="0.899" fill-rule="evenodd" clip-rule="evenodd" d="M23.279 71.4351C25.0775 71.0562 25.8534 71.7741 25.6068 73.5885C24.95 74.2188 24.1741 74.4121 23.279 74.1683C22.5455 73.7474 22.3047 73.1123 22.5565 72.2633C22.7211 71.901 22.9619 71.6249 23.279 71.4351Z" fill="#212156"/>
<path opacity="0.869" fill-rule="evenodd" clip-rule="evenodd" d="M56.8281 74.7465C57.4192 74.7192 58.0078 74.7467 58.5941 74.8294C59.1454 75.0826 59.4128 75.5244 59.3968 76.1546C59.4115 76.6207 59.251 77.0072 58.9152 77.3141C58.2391 77.5682 57.5435 77.6234 56.8281 77.4798C55.7708 76.5616 55.7708 75.6505 56.8281 74.7465Z" fill="#212156"/>
<path opacity="0.872" fill-rule="evenodd" clip-rule="evenodd" d="M64.8553 74.7475C65.4464 74.7202 66.035 74.7477 66.6213 74.8303C67.1726 75.0836 67.44 75.5254 67.424 76.1555C67.4387 76.6217 67.2782 77.0081 66.9423 77.3151C66.2663 77.5692 65.5707 77.6244 64.8553 77.4807C63.7956 76.5703 63.7956 75.6593 64.8553 74.7475Z" fill="#212156"/>
<path opacity="0.866" fill-rule="evenodd" clip-rule="evenodd" d="M19.5802 75.2441C21.3312 75.3742 21.8931 76.3127 21.2658 78.0602C20.7025 78.7415 20.0335 78.8795 19.2591 78.4743C18.5803 77.7226 18.4464 76.8667 18.8577 75.9067C19.082 75.6467 19.3228 75.4257 19.5802 75.2441Z" fill="#212156"/>
<path opacity="0.884" fill-rule="evenodd" clip-rule="evenodd" d="M61.3235 78.5581C62.0704 78.4726 62.6322 78.7488 63.0092 79.3864C63.1163 79.9938 63.1163 80.6011 63.0092 81.2085C62.4475 82.059 61.725 82.2246 60.8419 81.7055C60.3882 81.0608 60.2545 80.343 60.4406 79.552C60.6045 79.0799 60.8987 78.7486 61.3235 78.5581Z" fill="#212156"/>
</svg>
