<svg width="82" height="82" viewBox="0 0 82 82" fill="none" xmlns="http://www.w3.org/2000/svg">
<path fill-rule="evenodd" clip-rule="evenodd" d="M10.9345 0.0114746C11.8456 0.0114746 12.7567 0.0114746 13.6678 0.0114746C13.6678 0.92258 13.6678 1.8337 13.6678 2.74481C14.5789 2.74481 15.4901 2.74481 16.4012 2.74481C16.4012 3.65591 16.4012 4.56704 16.4012 5.47814C15.4901 5.47814 14.5789 5.47814 13.6678 5.47814C13.6678 6.38925 13.6678 7.30037 13.6678 8.21147C12.7567 8.21147 11.8456 8.21147 10.9345 8.21147C10.9345 7.30037 10.9345 6.38925 10.9345 5.47814C10.0234 5.47814 9.11228 5.47814 8.20117 5.47814C8.20117 4.56704 8.20117 3.65591 8.20117 2.74481C9.11228 2.74481 10.0234 2.74481 10.9345 2.74481C10.9345 1.8337 10.9345 0.92258 10.9345 0.0114746Z" fill="#A1C5FC"/>
<path opacity="0.972" fill-rule="evenodd" clip-rule="evenodd" d="M40.1468 0.0105164C40.719 -0.0176711 41.2884 0.0108068 41.8551 0.0959331C48.7697 1.89573 55.6601 3.7749 62.5259 5.73343C62.6329 5.86163 62.7183 6.004 62.7822 6.16052C62.8961 13.0508 62.8961 19.9411 62.7822 26.8313C62.0729 35.0537 58.7416 41.9725 52.7884 47.5876C47.3677 52.0217 41.3315 53.1036 34.6801 50.8334C30.1631 48.8217 26.6041 45.7182 24.003 41.523C21.3143 36.9874 19.7199 32.0901 19.2197 26.8313C19.0509 19.8128 19.1078 12.8086 19.3905 5.81885C19.8441 5.55356 20.328 5.35425 20.8426 5.22093C27.3197 3.55936 33.7543 1.82255 40.1468 0.0105164Z" fill="#010101"/>
<path fill-rule="evenodd" clip-rule="evenodd" d="M68.3329 0.0114746C69.244 0.0114746 70.1552 0.0114746 71.0663 0.0114746C71.0663 0.92258 71.0663 1.8337 71.0663 2.74481C71.9773 2.74481 72.8886 2.74481 73.7996 2.74481C73.7996 3.65591 73.7996 4.56704 73.7996 5.47814C72.8886 5.47814 71.9773 5.47814 71.0663 5.47814C71.0663 6.38925 71.0663 7.30037 71.0663 8.21147C70.1552 8.21147 69.244 8.21147 68.3329 8.21147C68.3329 7.30037 68.3329 6.38925 68.3329 5.47814C67.4219 5.47814 66.5107 5.47814 65.5996 5.47814C65.5996 4.56704 65.5996 3.65591 65.5996 2.74481C66.5107 2.74481 67.4219 2.74481 68.3329 2.74481C68.3329 1.8337 68.3329 0.92258 68.3329 0.0114746Z" fill="#A1C5FC"/>
<path fill-rule="evenodd" clip-rule="evenodd" d="M56.0335 6.8439C56.062 11.3998 56.0335 15.9553 55.9481 20.5106C55.4781 26.6476 53.485 32.2282 49.9689 37.2522C47.6733 40.2625 44.7974 42.5117 41.3418 44.0001C37.4704 45.4227 33.5981 45.451 29.7252 44.0856C27.1777 41.5606 25.27 38.5996 24.0022 35.2022C22.8947 32.2215 22.2114 29.1465 21.9523 25.9772C21.8099 19.9403 21.8383 13.9042 22.0377 7.8689C28.3529 6.13354 34.6737 4.4252 41.0002 2.7439C46.0269 4.12235 51.038 5.48902 56.0335 6.8439Z" fill="#EAE4DC"/>
<path fill-rule="evenodd" clip-rule="evenodd" d="M56.0329 6.84424C57.4076 7.16462 58.7743 7.50629 60.1329 7.86924C60.1615 13.9056 60.1329 19.9417 60.0475 25.9776C59.5407 32.2813 57.3767 37.9188 53.5559 42.8901C50.6874 46.2745 47.0714 48.353 42.7079 49.1255C37.5467 49.5413 33.219 47.8615 29.7246 44.0859C33.5976 45.4514 37.4699 45.423 41.3413 44.0005C44.7969 42.512 47.6727 40.2628 49.9684 37.2526C53.4845 32.2285 55.4776 26.6479 55.9475 20.5109C56.0329 15.9556 56.0615 11.4001 56.0329 6.84424Z" fill="#BFAA90"/>
<path fill-rule="evenodd" clip-rule="evenodd" d="M2.73333 8.21045C3.64444 8.21045 4.55556 8.21045 5.46667 8.21045C5.46667 9.12155 5.46667 10.0327 5.46667 10.9438C6.37777 10.9438 7.28889 10.9438 8.2 10.9438C8.2 11.8549 8.2 12.766 8.2 13.6771C7.28889 13.6771 6.37777 13.6771 5.46667 13.6771C5.46667 14.5882 5.46667 15.4994 5.46667 16.4104C4.55556 16.4104 3.64444 16.4104 2.73333 16.4104C2.73333 15.4994 2.73333 14.5882 2.73333 13.6771C1.82223 13.6771 0.911105 13.6771 0 13.6771C0 12.766 0 11.8549 0 10.9438C0.911105 10.9438 1.82223 10.9438 2.73333 10.9438C2.73333 10.0327 2.73333 9.12155 2.73333 8.21045Z" fill="#A1C5FC"/>
<path fill-rule="evenodd" clip-rule="evenodd" d="M76.5322 8.21045C77.4432 8.21045 78.3544 8.21045 79.2655 8.21045C79.2655 9.12155 79.2655 10.0327 79.2655 10.9438C80.1765 10.9438 81.0878 10.9438 81.9988 10.9438C81.9988 11.8549 81.9988 12.766 81.9988 13.6771C81.0878 13.6771 80.1765 13.6771 79.2655 13.6771C79.2655 14.5882 79.2655 15.4994 79.2655 16.4104C78.3544 16.4104 77.4432 16.4104 76.5322 16.4104C76.5322 15.4994 76.5322 14.5882 76.5322 13.6771C75.6211 13.6771 74.7099 13.6771 73.7988 13.6771C73.7988 12.766 73.7988 11.8549 73.7988 10.9438C74.7099 10.9438 75.6211 10.9438 76.5322 10.9438C76.5322 10.0327 76.5322 9.12155 76.5322 8.21045Z" fill="#A1C5FC"/>
<path fill-rule="evenodd" clip-rule="evenodd" d="M37.4137 13.6779C39.7492 13.6494 42.0838 13.6779 44.4179 13.7633C45.3421 14.061 45.9971 14.659 46.3825 15.5571C46.4679 17.2075 46.4962 18.8589 46.4679 20.5112C48.0633 20.4829 49.6579 20.5112 51.2512 20.5967C52.1754 20.8944 52.8304 21.4923 53.2158 22.3904C53.3297 24.7252 53.3297 27.0598 53.2158 29.3946C52.9027 30.391 52.2477 31.046 51.2512 31.3592C49.6579 31.4446 48.0633 31.4729 46.4679 31.4446C46.4962 33.04 46.4679 34.6345 46.3825 36.2279C46.0693 37.2244 45.4144 37.8794 44.4179 38.1925C42.0831 38.3064 39.7485 38.3064 37.4137 38.1925C36.5156 37.8071 35.9177 37.1521 35.62 36.2279C35.5345 34.6345 35.5062 33.04 35.5345 31.4446C33.8822 31.4729 32.2308 31.4446 30.5804 31.3592C29.6823 30.9738 29.0844 30.3188 28.7866 29.3946C28.6727 27.0598 28.6727 24.7252 28.7866 22.3904C29.1568 21.5648 29.7547 20.9669 30.5804 20.5967C32.2308 20.5112 33.8822 20.4829 35.5345 20.5112C35.5062 18.8589 35.5345 17.2075 35.62 15.5571C36.0226 14.7277 36.6205 14.1014 37.4137 13.6779Z" fill="#010101"/>
<path fill-rule="evenodd" clip-rule="evenodd" d="M38.2669 16.4111C40.0892 16.4111 41.9113 16.4111 43.7336 16.4111C42.5419 22.1665 44.8196 24.4444 50.5669 23.2445C50.5669 25.0667 50.5669 26.8889 50.5669 28.7111C44.8155 27.5153 42.5378 29.793 43.7336 35.5445C41.9113 35.5445 40.0892 35.5445 38.2669 35.5445C39.4669 29.7971 37.189 27.5194 31.4336 28.7111C31.4336 26.8889 31.4336 25.0667 31.4336 23.2445C33.029 23.2728 34.6236 23.2445 36.2169 23.159C37.2134 22.8459 37.8684 22.1909 38.1815 21.1945C38.2669 19.6011 38.2953 18.0065 38.2669 16.4111Z" fill="#56A3FE"/>
<path fill-rule="evenodd" clip-rule="evenodd" d="M8.20013 34.177C9.11124 34.177 10.0224 34.177 10.9335 34.177C10.9335 35.0881 10.9335 35.9993 10.9335 36.9103C11.8446 36.9103 12.7557 36.9103 13.6668 36.9103C13.6668 37.8214 13.6668 38.7326 13.6668 39.6437C12.7557 39.6437 11.8446 39.6437 10.9335 39.6437C10.9335 40.5547 10.9335 41.4659 10.9335 42.377C10.0224 42.377 9.11124 42.377 8.20013 42.377C8.20013 41.4659 8.20013 40.5547 8.20013 39.6437C7.28902 39.6437 6.3779 39.6437 5.4668 39.6437C5.4668 38.7326 5.4668 37.8214 5.4668 36.9103C6.3779 36.9103 7.28902 36.9103 8.20013 36.9103C8.20013 35.9993 8.20013 35.0881 8.20013 34.177Z" fill="#A1C5FC"/>
<path fill-rule="evenodd" clip-rule="evenodd" d="M71.0654 34.177C71.9764 34.177 72.8876 34.177 73.7987 34.177C73.7987 35.0881 73.7987 35.9993 73.7987 36.9103C74.7098 36.9103 75.621 36.9103 76.532 36.9103C76.532 37.8214 76.532 38.7326 76.532 39.6437C75.621 39.6437 74.7098 39.6437 73.7987 39.6437C73.7987 40.5547 73.7987 41.4659 73.7987 42.377C72.8876 42.377 71.9764 42.377 71.0654 42.377C71.0654 41.4659 71.0654 40.5547 71.0654 39.6437C70.1543 39.6437 69.2431 39.6437 68.332 39.6437C68.332 38.7326 68.332 37.8214 68.332 36.9103C69.2431 36.9103 70.1543 36.9103 71.0654 36.9103C71.0654 35.9993 71.0654 35.0881 71.0654 34.177Z" fill="#A1C5FC"/>
<path fill-rule="evenodd" clip-rule="evenodd" d="M16.4013 42.3777C17.3124 42.3777 18.2236 42.3777 19.1346 42.3777C19.1346 43.2887 19.1346 44.2 19.1346 45.111C20.0457 45.111 20.9569 45.111 21.868 45.111C21.868 46.0221 21.868 46.9333 21.868 47.8444C20.9569 47.8444 20.0457 47.8444 19.1346 47.8444C19.1346 48.7554 19.1346 49.6666 19.1346 50.5777C18.2236 50.5777 17.3124 50.5777 16.4013 50.5777C16.4013 49.6666 16.4013 48.7554 16.4013 47.8444C15.4902 47.8444 14.579 47.8444 13.668 47.8444C13.668 46.9333 13.668 46.0221 13.668 45.111C14.579 45.111 15.4902 45.111 16.4013 45.111C16.4013 44.2 16.4013 43.2887 16.4013 42.3777Z" fill="#A1C5FC"/>
<path fill-rule="evenodd" clip-rule="evenodd" d="M62.8681 42.3777C63.7792 42.3777 64.6904 42.3777 65.6014 42.3777C65.6014 43.2887 65.6014 44.2 65.6014 45.111C66.5125 45.111 67.4237 45.111 68.3348 45.111C68.3348 46.0221 68.3348 46.9333 68.3348 47.8444C67.4237 47.8444 66.5125 47.8444 65.6014 47.8444C65.6014 48.7554 65.6014 49.6666 65.6014 50.5777C64.6904 50.5777 63.7792 50.5777 62.8681 50.5777C62.8681 49.6666 62.8681 48.7554 62.8681 47.8444C61.957 47.8444 61.0458 47.8444 60.1348 47.8444C60.1348 46.9333 60.1348 46.0221 60.1348 45.111C61.0458 45.111 61.957 45.111 62.8681 45.111C62.8681 44.2 62.8681 43.2887 62.8681 42.3777Z" fill="#A1C5FC"/>
<path opacity="0.979" fill-rule="evenodd" clip-rule="evenodd" d="M0.683338 50.5767C3.90172 50.8568 7.09061 51.3408 10.25 52.0287C10.5632 52.1142 10.7625 52.3135 10.8479 52.6267C10.9332 53.4789 10.9617 54.3331 10.9333 55.1892C12.5411 54.6422 14.1356 54.0442 15.7167 53.3954C19.0194 53.2815 22.3223 53.2815 25.625 53.3954C32.4865 54.7107 39.3199 56.1344 46.125 57.6662C47.184 58.668 48.1805 59.7215 49.1146 60.8267C49.2285 62.6489 49.2285 64.471 49.1146 66.2933C49.0507 66.4498 48.9653 66.5923 48.8583 66.7204C44.0328 66.9454 39.1926 67.0593 34.3375 67.0621C36.7292 68.3719 39.1208 69.6815 41.5125 70.9912C44.9292 71.1052 48.3458 71.1052 51.7625 70.9912C58.4168 68.9363 65.1078 67.0288 71.8354 65.2683C74.8185 65.4896 76.3845 67.0839 76.5333 70.0517C76.5718 72.0335 75.7176 73.4856 73.9708 74.4079C66.8657 76.9472 59.7476 79.4526 52.6167 81.9246C45.2708 82.0385 37.925 82.0385 30.5792 81.9246C25.2833 80.1594 19.9875 78.394 14.6917 76.6287C13.4402 76.5433 12.1874 76.515 10.9333 76.5433C10.9616 77.2291 10.9331 77.9124 10.8479 78.5933C10.6192 79.0365 10.249 79.2927 9.7375 79.3621C7.03928 79.8355 4.33442 80.2625 1.62292 80.6433C0.934736 80.7667 0.422236 80.5389 0.0854209 79.96C-0.0284736 70.3933 -0.0284736 60.8267 0.0854209 51.26C0.203245 50.944 0.402556 50.7161 0.683338 50.5767Z" fill="#010100"/>
<path fill-rule="evenodd" clip-rule="evenodd" d="M2.73438 53.6523C4.50964 53.8818 6.27491 54.1666 8.03021 54.5065C8.25798 61.9092 8.25798 69.3121 8.03021 76.7148C6.27491 77.0548 4.50964 77.3396 2.73438 77.569C2.73438 69.5967 2.73438 61.6246 2.73438 53.6523Z" fill="#00D6DE"/>
<path fill-rule="evenodd" clip-rule="evenodd" d="M16.4001 56.0441C19.2479 56.0156 22.0952 56.0441 24.9418 56.1296C31.4381 57.4175 37.9297 58.7271 44.4168 60.0587C45.0716 60.7135 45.7266 61.3685 46.3814 62.0233C46.4666 62.7615 46.4951 63.5017 46.4668 64.2441C40.3735 64.2156 34.2804 64.2441 28.1876 64.3296C27.1908 64.9881 27.0769 65.7854 27.8459 66.7212C32.0599 69.056 36.2737 71.3906 40.4876 73.7254C44.4168 73.8393 48.3459 73.8393 52.2751 73.7254C58.4998 71.9679 64.7067 70.1456 70.8959 68.2587C72.9181 67.8904 73.8577 68.7161 73.7147 70.7358C73.4656 71.1561 73.1525 71.5263 72.7751 71.8462C65.815 74.2611 58.8677 76.7099 51.9334 79.1921C45.0432 79.306 38.1528 79.306 31.2626 79.1921C25.9668 77.4268 20.6709 75.6615 15.3751 73.8962C13.8956 73.8108 12.4151 73.7825 10.9334 73.8108C10.8765 68.6276 10.9335 63.4457 11.1043 58.265C12.9045 57.5629 14.6697 56.8226 16.4001 56.0441Z" fill="#FDD9A9"/>
</svg>
