<svg width="74" height="33" viewBox="0 0 74 33" fill="none" xmlns="http://www.w3.org/2000/svg">
<path d="M21.4852 28.2612C21.2717 27.8826 21.0594 27.574 20.9305 27.2338C20.8648 27.0604 20.8773 26.9071 20.6334 26.912C20.2767 26.9192 20.3874 27.1853 20.3888 27.3596C20.3972 28.3482 20.1714 29.3058 19.8299 30.207C19.4217 31.2843 18.6986 32.1614 17.4799 32.3846C16.3474 32.592 15.3928 32.1682 14.7431 31.2417C14.1082 30.3365 13.891 29.2525 13.8519 28.1689C13.7966 26.6379 13.7935 25.1017 13.8508 23.5708C13.9045 22.1376 14.1818 20.7236 14.5657 19.3442C14.7468 18.6931 15.3618 18.5194 15.9754 18.6118C16.5316 18.6955 17.015 18.9016 17.0332 19.6362C17.0595 20.6961 16.5337 21.6247 16.4057 22.6464C16.1308 24.8393 16.1312 27.0251 16.5043 29.2043C16.5475 29.4567 16.7632 29.7094 17.0298 29.7163C17.2978 29.7232 17.2954 29.4204 17.3957 29.213C18.0506 27.8588 17.935 26.3585 18.2433 24.9404C18.4738 23.8802 18.7935 22.8737 19.2639 21.8963C19.5313 21.3408 20.0341 21.1437 20.4925 21.1179C20.9295 21.0932 21.3544 21.4137 21.6243 21.8788C22.1441 22.7743 22.3495 23.7747 22.6868 24.7314C23.3554 26.6274 24.4226 28.2299 26.1119 29.3816C26.329 29.5297 26.4961 29.6348 26.7368 29.4928C27.017 29.3276 26.7195 29.1414 26.7543 28.9681C26.9037 28.2249 26.4299 27.6229 26.1643 27.0412C25.3349 25.2249 24.8375 23.3253 24.6639 21.3734C24.4805 19.3121 25.5994 17.8305 28.197 18.2639C29.8242 18.5353 31.4343 18.9008 33.101 18.7765C33.9493 18.7133 34.7938 18.8242 35.2162 19.6434C35.7266 20.6333 35.2704 21.493 34.6424 22.3105C33.3105 24.0443 32.4551 25.9737 32.4134 28.2028C32.4112 28.3207 32.3838 28.4486 32.4193 28.5548C32.5516 28.9509 32.5386 29.5323 32.8906 29.6789C33.2176 29.8151 33.4801 29.2933 33.7329 29.031C35.1065 27.6059 35.9232 25.8468 36.6531 24.0428C36.9712 23.2565 37.2465 22.4528 37.5461 21.6589C37.8085 20.9633 38.3549 20.8566 39.0243 20.8856C39.6674 20.9134 39.8788 21.3851 40.0037 21.8269C40.5674 23.821 41.1206 25.8033 42.2914 27.5647C42.6196 28.0585 43.1749 28.3348 43.3914 28.8963C43.4676 29.0939 43.6349 29.0496 43.7574 29.0203C43.973 28.9687 44.0801 28.8088 44.0901 28.5737C44.1552 27.0507 44.1134 25.5234 43.867 24.0266C43.6608 22.7742 43.5085 21.5182 43.4044 20.2591C43.3617 19.7433 43.2201 19.6147 42.7444 19.6539C41.4859 19.7575 40.3871 19.3002 39.405 18.5693C38.4357 17.8479 38.2955 16.0737 39.2955 15.0671C40.8701 13.4822 43.1623 13.964 44.5577 15.8224C44.8505 16.2123 44.8538 16.4659 45.457 16.0142C46.2831 15.3956 47.3301 15.067 48.1934 14.4347C48.573 14.1567 49.195 13.8635 49.4845 14.428C49.729 14.9045 49.7084 15.5079 49.0903 15.9563C48.0028 16.7453 46.9402 17.567 45.7841 18.2558C45.3878 18.4919 45.4738 18.8693 45.5206 19.1963C45.9655 22.3066 46.7512 25.3797 46.5594 28.5582C46.4962 29.6058 46.2151 30.5973 45.2315 31.167C43.6521 32.0818 41.9595 31.2853 40.908 29.9621C39.9551 28.7629 39.1341 27.4872 38.6179 25.8144C37.8906 27.748 36.9037 29.2936 35.7402 30.7241C34.5595 32.1757 32.6945 32.8605 31.2622 31.703C30.4303 31.0306 30.0352 30.1074 29.9455 29.0782C29.701 26.2729 30.5303 23.7577 32.1071 21.4613C32.135 21.4207 32.1369 21.3622 32.1694 21.246C30.7057 21.3217 29.3003 20.9338 27.859 20.8882C27.3974 20.8736 27.2402 21.0033 27.276 21.4716C27.4104 23.2276 27.9896 24.8462 28.6942 26.4415C29.2392 27.6754 29.6533 28.9289 29.2462 30.3366C28.8721 31.6302 27.5741 32.4979 26.2947 32.1799C24.5926 31.7569 23.3386 30.7166 22.3226 29.3364C22.0666 28.9887 21.7887 28.6572 21.4852 28.2612Z" fill="#30287D"/>
<path d="M15.8018 0.906004C19.3121 -1.0827 23.5389 0.35279 25.363 3.74578C26.5849 6.01848 27.2372 8.41029 27.2542 10.9425C27.2692 13.1683 26.623 15.3015 25.0797 16.9463C22.6939 19.4891 18.0749 19.635 16.2233 16.445C16.0188 16.0927 15.8029 16.132 15.5296 16.1222C14.233 16.0761 12.9363 16.2294 11.6548 15.7828C8.88904 14.8189 6.61881 11.9782 6.75404 8.99175C6.78875 8.22534 6.81792 7.48039 6.36255 6.73789C6.0211 6.18114 6.06045 5.40127 6.61176 4.89183C7.10803 4.43325 7.69016 3.98421 8.41561 4.572C8.47475 4.61992 8.58866 4.6343 8.6679 4.61837C10.7398 4.20174 13.1646 4.55494 14.3122 2.09459C14.6085 1.45942 15.3204 1.37692 15.8018 0.906004Z" fill="#30287D"/>
<path d="M5.18716 15.5909C6.68283 15.5736 8.10349 15.4902 9.35547 16.342C10.9475 17.4252 11.989 18.8445 12.2544 20.8063C12.5866 23.2628 12.4252 25.728 12.381 28.1843C12.3628 29.1933 12.2794 30.2169 12.2419 31.2353C12.2128 32.0271 11.5012 32.6983 10.8843 32.3576C9.77528 31.7451 8.82889 32.3574 7.82569 32.5019C5.52891 32.8326 2.95668 32.2295 1.24641 30.023C-1.55533 26.4082 0.644965 21.3159 5.07181 20.365C6.27715 20.1061 7.47617 20.0827 8.68435 20.3513C8.90159 20.3997 9.229 20.4119 9.35775 20.2877C9.5368 20.1149 9.31757 19.8953 9.19888 19.6862C8.23029 17.9802 6.42426 17.946 4.76505 18.1234C4.33924 18.169 3.89831 18.1652 3.47678 18.2508C2.59473 18.4299 2.28923 17.7688 2.20746 17.1884C2.11746 16.5496 2.49029 15.9138 3.21262 15.7971C3.83306 15.6968 4.45467 15.4877 5.18716 15.5909Z" fill="#30287D"/>
<path d="M51.0328 25.8956C52.687 24.2284 54.3454 22.6523 55.8353 20.9138C55.9419 20.7894 56.1632 20.7082 56.0898 20.4975C56.0114 20.2729 55.7905 20.3699 55.6351 20.372C53.6143 20.3997 51.6059 20.093 49.5804 20.1671C49.0612 20.1861 48.6014 20.4396 47.9934 20.2403C46.8851 19.8771 47.323 19.0696 47.2989 18.4329C47.2759 17.8233 47.8997 17.9208 48.2656 17.9076C49.501 17.8629 50.739 17.8905 51.976 17.8905C54.4206 17.8905 56.8656 17.9175 59.3094 17.8739C60.0293 17.861 60.3672 18.2316 60.6289 18.7749C60.892 19.321 60.5654 19.7074 60.2159 20.0703C58.6004 21.7477 56.9789 23.4192 55.3682 25.1011C54.1532 26.3698 52.9515 27.6511 51.7045 28.9684C54.5458 29.1905 57.3146 29.2614 60.0868 29.2113C60.6713 29.2007 61.2215 29.1779 61.2571 30.0124C61.3039 31.1109 61.1393 31.3767 60.2167 31.5138C58.3914 31.7851 56.5766 31.6804 54.7401 31.547C52.6893 31.3979 50.6191 31.4987 48.5577 31.5216C48.0088 31.5276 47.6309 31.4203 47.3894 30.86C47.1417 30.2851 47.2951 29.8419 47.6687 29.4413C48.7656 28.265 49.8806 27.1057 51.0328 25.8956Z" fill="#30287D"/>
<path d="M60.1909 25.2677C60.2639 23.2714 60.5389 21.4257 61.9217 19.9351C63.0648 18.7029 64.3407 17.8877 66.1346 17.8571C68.0596 17.8243 69.7387 18.2712 71.2568 19.4575C73.4278 21.1541 74.4184 23.5345 73.8355 26.4823C73.2341 29.5233 71.3634 31.0625 68.3787 31.5305C65.7765 31.9385 63.6058 31.0192 61.8703 29.2717C61.0268 28.4224 60.2931 27.2301 60.3557 25.8313C60.3629 25.6728 60.2505 25.509 60.1909 25.2677Z" fill="#30287D"/>
<path d="M42.2678 16.8675C42.4411 17.0927 42.7984 17.2319 42.6223 17.4551C42.483 17.6314 42.1433 17.6118 41.9193 17.4016C41.8561 17.3424 41.7997 17.2621 41.7241 17.2324C41.4309 17.1175 41.0271 17.1863 40.9274 16.7684C40.9125 16.7063 41.0524 16.556 41.145 16.5285C41.554 16.4074 41.9441 16.4156 42.2678 16.8675Z" fill="#FFFCF4"/>
<path d="M19.9352 16.2982C17.9706 15.804 17.1987 13.7564 18.0466 11.9881C18.5019 11.0384 18.943 10.0858 19.5772 9.23857C19.9164 8.78545 19.9564 8.28417 19.5169 7.94561C19.0365 7.57549 18.6451 8.00651 18.3594 8.34542C17.2597 9.65 16.0527 10.886 15.7328 12.6805C15.6005 13.4226 14.84 13.8799 13.7087 13.8018C11.9236 13.6786 10.4491 12.9133 9.49043 11.3292C8.80218 10.1919 8.44888 9.00902 8.86519 7.66589C9.15958 6.71613 9.64486 6.164 10.598 6.23532C12.7518 6.39648 14.1982 5.44312 15.5188 3.79955C17.4489 1.39728 21.1952 1.41662 23.0433 4.471C24.0215 6.08774 24.6221 7.81837 24.6166 9.71419C24.6138 10.6967 24.7151 11.6761 24.4717 12.6689C23.8841 15.0652 22.4265 16.2983 19.9352 16.2982Z" fill="#FFFCF4"/>
<path d="M6.29087 22.667C7.43672 22.6745 8.50605 22.5804 9.50127 23.144C9.83449 23.3327 9.95569 23.5146 9.95249 23.8772C9.93873 25.4385 9.94324 27.0001 9.94973 28.5615C9.95088 28.8392 9.91178 29.05 9.63347 29.2102C7.71553 30.3138 5.71558 30.4681 3.92426 29.166C2.66019 28.2472 1.78143 26.2846 3.16548 24.5476C3.9809 23.5243 4.9405 22.8825 6.29087 22.667Z" fill="#FFFCF4"/>
<path d="M63.0204 26.1655C62.2422 24.6284 62.8468 23.3493 63.5287 22.059C64.1654 20.8541 65.2888 20.2776 66.489 20.2493C67.6539 20.2219 68.8033 20.7427 69.7533 21.5269C71.0392 22.5883 71.7883 23.9037 71.4968 25.6113C71.2838 26.8588 70.6729 27.8256 69.5214 28.5437C67.5479 29.7742 65.8795 29.0948 64.2428 27.9595C63.6541 27.5511 63.3407 26.8754 63.0204 26.1655Z" fill="#FFFCF4"/>
<path d="M17.2614 7.04981C16.9109 6.40527 16.5199 5.94691 15.7875 5.84966C15.3001 5.78495 15.112 5.43626 15.3411 4.98548C15.6666 4.3454 16.8425 4.17893 17.6066 4.63352C18.3114 5.05284 18.7702 6.35997 18.3548 6.89634C18.1028 7.22156 17.7284 7.38453 17.2614 7.04981Z" fill="#30287D"/>
</svg>
