<svg width="517" height="228" viewBox="0 0 517 228" fill="none" xmlns="http://www.w3.org/2000/svg">
<path d="M149.823 197.074C148.335 194.434 146.854 192.282 145.955 189.91C145.497 188.701 145.584 187.632 143.883 187.666C141.396 187.716 142.168 189.572 142.178 190.787C142.236 197.681 140.662 204.359 138.281 210.643C135.434 218.155 130.392 224.271 121.893 225.828C113.996 227.274 107.339 224.319 102.808 217.858C98.381 211.546 96.8668 203.987 96.5938 196.431C96.2082 185.754 96.1864 175.042 96.5862 164.367C96.9605 154.372 98.8948 144.512 101.571 134.893C102.834 130.353 107.123 129.141 111.402 129.785C115.28 130.369 118.651 131.807 118.778 136.929C118.961 144.32 115.295 150.796 114.402 157.92C112.485 173.212 112.488 188.454 115.09 203.65C115.391 205.411 116.895 207.173 118.754 207.221C120.623 207.269 120.607 205.158 121.306 203.711C125.873 194.268 125.067 183.806 127.217 173.917C128.824 166.524 131.054 159.505 134.334 152.69C136.198 148.816 139.704 147.441 142.901 147.261C145.949 147.089 148.911 149.324 150.794 152.568C154.418 158.812 155.85 165.788 158.203 172.459C162.865 185.681 170.307 196.856 182.087 204.887C183.601 205.92 184.766 206.653 186.445 205.663C188.399 204.51 186.324 203.212 186.567 202.004C187.609 196.821 184.305 192.623 182.452 188.567C176.669 175.901 173.2 162.655 171.989 149.043C170.711 134.669 178.513 124.337 196.627 127.359C207.974 129.252 219.202 131.801 230.824 130.934C236.74 130.493 242.629 131.267 245.574 136.979C249.134 143.882 245.952 149.877 241.573 155.578C232.285 167.669 226.32 181.122 226.029 196.667C226.014 197.489 225.823 198.381 226.07 199.122C226.993 201.884 226.902 205.938 229.357 206.96C231.638 207.91 233.468 204.271 235.231 202.442C244.809 192.504 250.504 180.237 255.594 167.658C257.813 162.175 259.733 156.571 261.822 151.034C263.651 146.184 267.462 145.44 272.129 145.642C276.614 145.836 278.088 149.125 278.959 152.205C282.89 166.111 286.748 179.934 294.912 192.217C297.201 195.66 301.073 197.587 302.583 201.503C303.114 202.88 304.28 202.572 305.135 202.367C306.638 202.008 307.385 200.893 307.455 199.254C307.909 188.633 307.618 177.982 305.899 167.545C304.462 158.812 303.4 150.053 302.673 141.273C302.375 137.676 301.388 136.779 298.071 137.052C289.295 137.775 281.633 134.586 274.784 129.489C268.025 124.459 267.048 112.086 274.021 105.067C285.001 94.0152 300.985 97.3751 310.716 110.334C312.757 113.053 312.78 114.822 316.987 111.672C322.748 107.358 330.048 105.067 336.069 100.657C338.715 98.7186 343.053 96.6745 345.072 100.611C346.777 103.934 346.633 108.141 342.323 111.268C334.739 116.77 327.329 122.5 319.268 127.303C316.505 128.949 317.104 131.581 317.43 133.862C320.532 155.55 326.012 176.981 324.675 199.145C324.234 206.451 322.273 213.364 315.414 217.337C304.4 223.717 292.597 218.162 285.265 208.935C278.62 200.572 272.895 191.677 269.296 180.012C264.224 193.496 257.342 204.273 249.228 214.249C240.995 224.371 227.99 229.147 218.002 221.075C212.201 216.386 209.445 209.948 208.82 202.771C207.115 183.209 212.898 165.67 223.893 149.656C224.088 149.373 224.101 148.965 224.328 148.155C214.121 148.683 204.32 145.977 194.27 145.66C191.051 145.558 189.955 146.462 190.205 149.728C191.142 161.973 195.181 173.26 200.094 184.385C203.895 192.989 206.783 201.73 203.943 211.546C201.334 220.567 192.284 226.618 183.362 224.401C171.492 221.451 162.748 214.197 155.663 204.572C153.878 202.147 151.94 199.835 149.823 197.074Z" fill="#FFA858"/>
<path d="M110.191 6.31787C134.67 -7.55001 164.144 2.46012 176.865 26.1205C185.385 41.9688 189.934 58.6478 190.053 76.3058C190.157 91.8268 185.651 106.702 174.889 118.172C158.252 135.904 126.043 136.921 113.131 114.677C111.705 112.22 110.199 112.493 108.293 112.426C99.2517 112.104 90.2094 113.173 81.2726 110.059C61.9864 103.337 46.1553 83.5279 47.0983 62.7024C47.3403 57.358 47.5437 52.1632 44.3683 46.9855C41.9873 43.1031 42.2617 37.6648 46.1061 34.1123C49.5668 30.9145 53.6262 27.7832 58.6849 31.882C59.0974 32.2162 59.8917 32.3165 60.4443 32.2054C74.8926 29.3001 91.801 31.7631 99.8039 14.6063C101.87 10.177 106.834 9.60173 110.191 6.31787Z" fill="#FFA858"/>
<path d="M36.1718 108.72C46.6015 108.6 56.5083 108.018 65.2387 113.958C76.3404 121.512 83.6034 131.409 85.4537 145.089C87.7706 162.219 86.6452 179.41 86.3367 196.538C86.21 203.574 85.6284 210.712 85.367 217.814C85.1637 223.335 80.2014 228.015 75.8998 225.64C68.1663 221.369 61.5667 225.638 54.5711 226.646C38.5549 228.952 20.6179 224.747 8.69164 209.36C-10.8458 184.153 4.49755 148.643 35.3674 142.012C43.7726 140.206 52.1338 140.043 60.5588 141.916C62.0737 142.253 64.3569 142.339 65.2547 141.473C66.5032 140.268 64.9745 138.736 64.1468 137.278C57.3925 125.381 44.7985 125.143 33.2283 126.38C30.259 126.698 27.1842 126.672 24.2447 127.269C18.0939 128.518 15.9636 123.907 15.3934 119.86C14.7657 115.405 17.3656 110.972 22.4026 110.158C26.7292 109.458 31.0639 108.001 36.1718 108.72Z" fill="#FFA858"/>
<path d="M355.867 180.579C367.402 168.953 378.967 157.962 389.356 145.839C390.1 144.971 391.643 144.405 391.131 142.936C390.584 141.37 389.044 142.047 387.96 142.061C373.868 142.254 359.863 140.115 345.738 140.632C342.118 140.765 338.912 142.532 334.672 141.143C326.943 138.61 329.997 132.979 329.829 128.539C329.668 124.288 334.018 124.968 336.57 124.876C345.185 124.565 353.818 124.757 362.444 124.757C379.491 124.757 396.541 124.945 413.582 124.641C418.602 124.551 420.959 127.135 422.784 130.924C424.618 134.732 422.341 137.427 419.903 139.957C408.638 151.654 397.331 163.31 386.099 175.039C377.627 183.886 369.246 192.821 360.55 202.007C380.364 203.556 399.672 204.049 419.003 203.7C423.079 203.627 426.916 203.468 427.164 209.287C427.49 216.947 426.343 218.801 419.909 219.757C407.181 221.648 394.525 220.918 381.719 219.988C367.418 218.948 352.982 219.651 338.607 219.811C334.78 219.853 332.144 219.105 330.46 215.197C328.733 211.188 329.803 208.098 332.408 205.304C340.057 197.102 347.832 189.018 355.867 180.579Z" fill="#FFA858"/>
<path d="M419.731 176.2C420.24 162.279 422.158 149.409 431.8 139.014C439.771 130.421 448.669 124.737 461.178 124.524C474.602 124.295 486.311 127.411 496.897 135.684C512.036 147.515 518.944 164.114 514.879 184.67C510.686 205.876 497.64 216.609 476.827 219.873C458.681 222.718 443.544 216.307 431.442 204.121C425.56 198.199 420.443 189.884 420.88 180.13C420.93 179.025 420.146 177.883 419.731 176.2Z" fill="#FFA858"/>
<path d="M294.749 117.622C295.958 119.192 298.449 120.163 297.221 121.719C296.25 122.949 293.881 122.812 292.319 121.347C291.878 120.933 291.485 120.373 290.957 120.167C288.913 119.365 286.097 119.845 285.402 116.931C285.298 116.498 286.274 115.449 286.919 115.258C289.771 114.413 292.492 114.47 294.749 117.622Z" fill="#19181C"/>
<path d="M139.016 113.654C125.316 110.207 119.934 95.9288 125.846 83.5976C129.021 76.9753 132.097 70.3321 136.52 64.4241C138.885 61.2644 139.164 57.7688 136.1 55.4079C132.75 52.8269 130.02 55.8326 128.028 58.1959C120.359 67.2932 111.942 75.9121 109.711 88.4258C108.789 93.6004 103.486 96.7897 95.5971 96.2451C83.149 95.3858 72.8667 90.049 66.1815 79.0025C61.3821 71.072 58.9184 62.8234 61.8215 53.4573C63.8744 46.8343 67.2584 42.9842 73.9049 43.4815C88.9242 44.6053 99.0106 37.9572 108.219 26.4961C121.678 9.7442 147.803 9.87905 160.69 31.1783C167.511 42.4523 171.699 54.5206 171.661 67.7408C171.641 74.5925 172.348 81.4219 170.651 88.3451C166.553 105.055 156.389 113.654 139.016 113.654Z" fill="#19181C"/>
<path d="M43.8685 158.065C51.8589 158.118 59.3157 157.462 66.2556 161.392C68.5793 162.708 69.4244 163.976 69.4021 166.504C69.3061 177.392 69.3376 188.281 69.3829 199.17C69.3909 201.106 69.1182 202.576 67.1775 203.693C53.8031 211.389 39.8568 212.465 27.3653 203.385C18.5505 196.978 12.4227 183.292 22.0741 171.179C27.7603 164.043 34.4519 159.568 43.8685 158.065Z" fill="#19181C"/>
<path d="M439.462 182.461C434.036 171.742 438.252 162.823 443.007 153.824C447.447 145.423 455.28 141.403 463.65 141.205C471.773 141.014 479.788 144.646 486.413 150.114C495.38 157.516 500.603 166.689 498.571 178.596C497.086 187.295 492.825 194.037 484.795 199.044C471.034 207.626 459.4 202.887 447.986 194.971C443.881 192.123 441.696 187.411 439.462 182.461Z" fill="#19181C"/>
<path d="M120.369 49.1613C117.925 44.6667 115.199 41.4704 110.091 40.7922C106.692 40.341 105.38 37.9095 106.979 34.766C109.248 30.3025 117.448 29.1417 122.776 32.3117C127.691 35.2358 130.891 44.3508 127.994 48.0911C126.237 50.359 123.626 51.4954 120.369 49.1613Z" fill="#FFA858"/>
</svg>
