<svg width="19" height="15" viewBox="0 0 19 15" fill="none" xmlns="http://www.w3.org/2000/svg">
<path opacity="0.988" fill-rule="evenodd" clip-rule="evenodd" d="M12.4534 0.00735327C13.6909 -0.0606103 14.7436 0.342548 15.6115 1.21683C16.4345 1.01718 17.211 0.703608 17.9408 0.276126C17.7377 1.15129 17.2524 1.83066 16.485 2.31432C16.6357 2.3291 16.785 2.31418 16.9329 2.26952C17.4625 2.12761 17.9852 1.97831 18.5008 1.82157C17.9819 2.60921 17.3399 3.28114 16.5746 3.83736C16.643 7.3882 15.3439 10.3298 12.6774 12.6621C10.4173 14.4254 7.84908 15.1869 4.97254 14.9466C3.2085 14.7867 1.58092 14.2342 0.0898438 13.2892C1.68339 13.4193 3.19152 13.1207 4.61418 12.3933C4.94728 12.2015 5.26085 11.985 5.55488 11.7438C3.88289 11.5503 2.74809 10.6693 2.15043 9.10082C2.16536 9.0859 2.1803 9.07094 2.19523 9.05603C2.71768 9.16681 3.24026 9.15932 3.76307 9.03363C1.90841 8.45259 0.945311 7.19083 0.873763 5.24842C1.35004 5.53667 1.86518 5.6785 2.4192 5.67397C0.832928 4.30821 0.482028 2.67317 1.36651 0.768875C1.39865 0.726275 1.43599 0.718839 1.4785 0.746477C3.48059 3.11383 6.03393 4.39793 9.13852 4.59888C8.83646 2.81414 9.44868 1.4404 10.9751 0.477705C11.446 0.233557 11.9388 0.0767727 12.4534 0.00735327Z" fill="#FCF4DC"/>
</svg>
